<svg width="173" height="173" viewBox="0 0 173 173" fill="none" xmlns="http://www.w3.org/2000/svg">
<g clip-path="url(#clip0_1_802)">
<path d="M87.9181 79.8463C87.8975 79.8272 87.8704 79.8165 87.8422 79.8165C87.8141 79.8165 87.7869 79.8272 87.7664 79.8463C87.4523 80.1233 87.4576 80.0918 87.6146 80.3337C87.7922 80.2515 87.9653 80.1602 88.1333 80.0602L87.9181 79.8463Z" fill="#BE1E2D"/>
<path d="M87.8209 34C94.4859 34 100.878 36.6317 105.591 41.3162C110.304 46.0007 112.951 52.3542 112.951 58.9791V73.7088H62.6907V58.9791C62.6907 52.3542 65.3383 46.0007 70.0512 41.3162C74.764 36.6317 81.156 34 87.8209 34Z" fill="#F4F2F4"/>
<path d="M87.8209 113.675C81.1564 113.674 74.7652 111.042 70.0527 106.358C65.3402 101.673 62.6921 95.3208 62.6907 88.6963V76.0305H70.2641V88.6963C70.3563 93.2631 72.2461 97.612 75.5279 100.809C78.8098 104.007 83.222 105.798 87.8174 105.798C92.4128 105.798 96.825 104.007 100.107 100.809C103.389 97.612 105.279 93.2631 105.371 88.6963V76.0305H112.944V88.6963C112.944 95.3198 110.297 101.672 105.586 106.356C100.874 111.04 94.4845 113.673 87.8209 113.675Z" fill="#FFB940"/>
<path fill-rule="evenodd" clip-rule="evenodd" d="M99.8314 62.8983H96.2925C97.0317 64.0556 97.5433 65.5549 97.6526 67.8485C98.2648 67.9502 98.5806 68.5289 98.5806 69.076V69.9878H99.0463V71.4345H99.8896V74.0806H100.662V64.7868L101.999 62.8948L99.8314 62.8983Z" fill="url(#paint0_linear_1_802)"/>
<path fill-rule="evenodd" clip-rule="evenodd" d="M98.9139 48.9367C98.9133 48.6756 98.8244 48.4224 98.6615 48.2176C98.4987 48.0128 98.2713 47.8683 98.016 47.8074V45.7329C98.0153 45.568 97.9545 45.4089 97.8448 45.2851C97.7352 45.1613 97.5842 45.0812 97.4197 45.0596V44.7299C97.4197 44.5453 97.3565 44.3662 97.2404 44.2221C97.1243 44.0781 96.9623 43.9776 96.7811 43.9373L96.7475 43.3674C96.803 43.3523 96.8522 43.32 96.888 43.2752C96.9239 43.2305 96.9445 43.1756 96.9469 43.1184C96.94 43.0556 96.913 42.9965 96.8698 42.9501C96.8266 42.9037 96.7695 42.8723 96.707 42.8607L96.6946 42.6853L96.5994 41.3737L96.5041 42.6853L96.4917 42.8607C96.4292 42.8723 96.3721 42.9037 96.3289 42.9501C96.2857 42.9965 96.2587 43.0556 96.2518 43.1184C96.2548 43.1757 96.2761 43.2306 96.3126 43.275C96.3491 43.3195 96.3988 43.3512 96.4547 43.3657L96.4212 43.9356C96.2399 43.9758 96.0779 44.0763 95.9618 44.2204C95.8457 44.3645 95.7825 44.5436 95.7826 44.7282V45.0578C95.6181 45.0795 95.467 45.1596 95.3574 45.2834C95.2478 45.4072 95.187 45.5663 95.1863 45.7312V47.8074C94.9309 47.8683 94.7036 48.0128 94.5407 48.2176C94.3779 48.4224 94.289 48.6756 94.2883 48.9367V56.796H98.9139V48.9367ZM95.7561 52.6752H95.0152V50.6586C95.0152 50.561 95.0542 50.4673 95.1237 50.3982C95.1931 50.3292 95.2874 50.2904 95.3856 50.2904C95.4839 50.2904 95.5781 50.3292 95.6476 50.3982C95.7171 50.4673 95.7561 50.561 95.7561 50.6586V52.6752ZM96.2677 46.9306C96.2644 46.8857 96.2704 46.8405 96.2855 46.798C96.3005 46.7554 96.3242 46.7164 96.3551 46.6834C96.3859 46.6504 96.4233 46.6241 96.4649 46.606C96.5065 46.588 96.5514 46.5787 96.5967 46.5787C96.6421 46.5787 96.6869 46.588 96.7285 46.606C96.7701 46.6241 96.8075 46.6504 96.8384 46.6834C96.8692 46.7164 96.8929 46.7554 96.908 46.798C96.923 46.8405 96.929 46.8857 96.9257 46.9306V47.8074H96.2677V46.9306ZM96.2271 52.6752V50.6586C96.2271 50.561 96.2662 50.4673 96.3356 50.3982C96.4051 50.3292 96.4993 50.2904 96.5976 50.2904C96.6959 50.2904 96.7901 50.3292 96.8596 50.3982C96.929 50.4673 96.9681 50.561 96.9681 50.6586V52.6752H96.2271ZM98.1853 52.6752H97.4444V50.6586C97.4444 50.561 97.4834 50.4673 97.5529 50.3982C97.6224 50.3292 97.7166 50.2904 97.8149 50.2904C97.9131 50.2904 98.0073 50.3292 98.0768 50.3982C98.1463 50.4673 98.1853 50.561 98.1853 50.6586V52.6752Z" fill="url(#paint1_linear_1_802)"/>
<path fill-rule="evenodd" clip-rule="evenodd" d="M93.7856 60.4959C94.6036 61.001 95.329 61.6408 95.9308 62.388H99.4132V58.539L100.264 57.3115H92.9353L93.7856 58.539V60.4959Z" fill="url(#paint2_linear_1_802)"/>
<path fill-rule="evenodd" clip-rule="evenodd" d="M102.073 62.8983L100.736 64.7904V74.0876H100.375V64.7904L101.712 62.8983H102.073Z" fill="#242424"/>
<path fill-rule="evenodd" clip-rule="evenodd" d="M98.0865 47.8074V45.7347C98.0862 45.5695 98.0256 45.41 97.9159 45.2858C97.8063 45.1616 97.655 45.0813 97.4902 45.0596V44.7299C97.4902 44.5455 97.4269 44.3667 97.3108 44.2229C97.1947 44.0791 97.0327 43.979 96.8516 43.9391L96.8181 43.3674C96.874 43.3528 96.9237 43.3207 96.96 43.2759C96.9962 43.2311 97.0169 43.1759 97.0192 43.1184C97.0127 43.0557 96.986 42.9967 96.9431 42.9503C96.9002 42.9038 96.8433 42.8724 96.781 42.8607L96.7669 42.6853L96.6734 41.3737L96.5781 42.6853L96.5658 42.8607C96.54 42.8677 96.5151 42.8777 96.4917 42.8905C96.54 42.9077 96.5822 42.9384 96.6135 42.9788C96.6448 43.0192 96.6637 43.0676 96.6681 43.1184C96.6662 43.1691 96.6495 43.2181 96.6201 43.2596C96.5907 43.301 96.5497 43.333 96.5023 43.3516L96.5376 43.3657L96.504 43.9373C96.6848 43.9776 96.8464 44.0779 96.9622 44.2216C97.0779 44.3654 97.141 44.544 97.1409 44.7282V45.0578C97.3057 45.0795 97.457 45.1599 97.5666 45.284C97.6763 45.4082 97.7369 45.5677 97.7372 45.7329V47.8074C97.9925 47.8683 98.2199 48.0128 98.3828 48.2176C98.5456 48.4224 98.6345 48.6756 98.6351 48.9367V56.796H98.988V48.9367C98.9871 48.6751 98.8977 48.4215 98.7342 48.2167C98.5707 48.0118 98.3425 47.8676 98.0865 47.8074Z" fill="#242424"/>
<path fill-rule="evenodd" clip-rule="evenodd" d="M100.337 57.3132L99.4871 58.539V62.388H99.1255V58.539L99.9758 57.3132H100.337Z" fill="#242424"/>
<path fill-rule="evenodd" clip-rule="evenodd" d="M95.7261 71.5257L98.6281 71.4485V70.3841L95.7261 70.3719V70.0983L98.1642 69.9843V69.2636C98.1642 68.7095 97.9189 68.1729 97.2344 68.1729C97.1198 65.7285 96.5464 64.1047 95.7261 62.9263V62.9C93.8579 60.2452 90.7283 59.8629 88.7701 57.3694H86.9177C84.9595 59.8629 81.8282 60.2452 79.9617 62.9V62.9334C79.1414 64.1117 78.568 65.739 78.4516 68.1799C77.7671 68.1799 77.5219 68.7165 77.5219 69.2706V69.9966L79.9617 70.1106V70.3841L77.0579 70.3964V71.4608L79.9617 71.538V71.8098H76.2129V74.0894H99.4732V71.8098H95.7261V71.5257ZM88.6431 58.432C89.1266 59.2474 89.6822 60.0185 90.3031 60.7362C91.7321 62.4073 93.184 64.103 93.4627 68.1466L93.1628 68.1659C92.8911 64.2275 91.4745 62.5704 90.0791 60.9413C89.4022 60.1659 88.8047 59.3253 88.2955 58.432H88.6431ZM87.6922 58.432H87.9921V68.1677H87.6922V58.432ZM82.2233 68.1466C82.5074 64.1082 83.9522 62.4073 85.3812 60.7414C86.0027 60.0242 86.5582 59.2531 87.0412 58.4373H87.394C86.8836 59.3302 86.2856 60.1707 85.6087 60.9466C84.2133 62.5756 82.7967 64.2327 82.525 68.1712L82.2233 68.1466Z" fill="#0D9543"/>
<path fill-rule="evenodd" clip-rule="evenodd" d="M88.6536 56.9713C88.6533 56.8035 88.596 56.6407 88.491 56.5092C88.3859 56.3778 88.2394 56.2854 88.075 56.2471L88.0291 55.6071C88.1041 55.5863 88.1708 55.543 88.2201 55.483C88.2694 55.423 88.2988 55.3494 88.3043 55.2722C88.2972 55.1861 88.2614 55.1049 88.2026 55.0414C88.1438 54.9778 88.0654 54.9356 87.9797 54.9215L87.9621 54.6917L87.8333 52.9102L87.7045 54.6917L87.6868 54.9215C87.6012 54.9356 87.5227 54.9778 87.4639 55.0414C87.4051 55.1049 87.3693 55.1861 87.3622 55.2722C87.3677 55.3494 87.3972 55.423 87.4464 55.483C87.4957 55.543 87.5624 55.5863 87.6374 55.6071L87.5916 56.2471C87.4272 56.2854 87.2806 56.3778 87.1756 56.5092C87.0706 56.6407 87.0133 56.8035 87.0129 56.9713H88.6536Z" fill="#0D9543"/>
<path fill-rule="evenodd" clip-rule="evenodd" d="M87.8546 72.4849L87.8528 73.0513L87.851 74.7575L87.8404 81.733L87.851 88.5543H72.697V72.0535L87.7893 65.3831L87.8193 65.3936L87.821 67.3593L87.8246 69.4179L87.8263 72.0675L87.8281 72.4744L87.8546 72.4849Z" fill="url(#paint3_linear_1_802)"/>
<path fill-rule="evenodd" clip-rule="evenodd" d="M102.945 72.0535V88.5543H87.7926L87.8014 81.733L87.7926 74.7347L87.7908 73.0267L87.7891 72.4849L87.8138 72.4744L87.8155 72.0623L87.819 69.4162L87.8208 67.3593L87.8243 65.3936L87.8543 65.3831L102.945 72.0535Z" fill="#242424"/>
<path fill-rule="evenodd" clip-rule="evenodd" d="M72.6987 75.4203L87.7892 69.4039V72.0413L72.6987 78.0752V75.4203Z" fill="white"/>
<path fill-rule="evenodd" clip-rule="evenodd" d="M85.1658 74.0578V75.7587L87.7891 74.7066V73.0074L85.1658 74.0578ZM79.6387 76.2603V77.97L82.7013 76.7425V75.0328L79.6387 76.2603ZM73.6406 78.6538V80.3688L77.1689 78.9572V77.244L73.6406 78.6538Z" fill="white"/>
<path fill-rule="evenodd" clip-rule="evenodd" d="M78.2752 76.8424L77.7495 77.87L78.4975 78.4627L79.0215 77.3615L78.2752 76.8424Z" fill="white"/>
<path fill-rule="evenodd" clip-rule="evenodd" d="M83.8463 74.675L83.3188 75.7026L84.0686 76.2953L84.5908 75.1958L83.8463 74.675Z" fill="white"/>
<path fill-rule="evenodd" clip-rule="evenodd" d="M102.943 75.4466L87.7891 69.4039V72.0518L102.943 78.112V75.4466Z" fill="white"/>
<path fill-rule="evenodd" clip-rule="evenodd" d="M87.8528 73.0513L87.791 73.0267V74.7329L87.8492 74.7557L90.4214 75.785V74.0753L87.8528 73.0513ZM92.8982 75.0643V76.7863L95.9749 78.0138V76.2953L92.8982 75.0643ZM98.4517 77.2756V78.9975L101.999 80.4161V78.6907L98.4517 77.2756Z" fill="white"/>
<path fill-rule="evenodd" clip-rule="evenodd" d="M97.342 76.874L97.8712 77.9051L97.1197 78.4996L96.594 77.3948L97.342 76.874Z" fill="white"/>
<path fill-rule="evenodd" clip-rule="evenodd" d="M91.748 74.6979L92.2772 75.729L91.5257 76.3252L91 75.2204L91.748 74.6979Z" fill="white"/>
<path d="M109.508 79.4517H108.82V82.3029H109.508V79.4517Z" fill="#242424"/>
<path d="M84.7213 110.035C82.6565 109.741 80.6456 109.15 78.7514 108.282L79.0408 107.661C80.8739 108.501 82.8201 109.071 84.8183 109.355L84.7213 110.035ZM90.9435 110.035L90.8464 109.358C92.8443 109.069 94.7893 108.494 96.6205 107.649L96.9098 108.271C95.0173 109.142 93.0075 109.735 90.9435 110.032V110.035ZM73.5331 104.913C71.9647 103.547 70.6018 101.965 69.4862 100.214L70.0666 99.8471C71.1467 101.546 72.4668 103.081 73.9865 104.406L73.5331 104.913ZM102.126 104.899L101.673 104.383C103.191 103.058 104.51 101.523 105.588 99.8243L106.17 100.191C105.055 101.944 103.694 103.53 102.126 104.899ZM66.9476 94.5654C66.4065 92.6555 66.1329 90.6805 66.1343 88.6963V88.4368H66.8223V88.6963C66.8209 90.6176 67.0857 92.53 67.6091 94.3795L66.9476 94.5654ZM108.701 94.5426L108.038 94.3567C108.558 92.5144 108.821 90.6098 108.82 88.6963V88.414H109.508V88.6963C109.509 90.6725 109.237 92.6396 108.701 94.5426Z" fill="#242424"/>
<path d="M66.8223 79.4517H66.1343V82.3029H66.8223V79.4517Z" fill="#242424"/>
<path fill-rule="evenodd" clip-rule="evenodd" d="M72.8787 90.9584C73.4368 94.499 75.249 97.725 77.9888 100.055C80.7285 102.384 84.2155 103.665 87.821 103.664C91.4264 103.664 94.9131 102.384 97.6528 100.054C100.392 97.7246 102.205 94.4989 102.763 90.9584H72.8787Z" fill="#FFB940"/>
<path d="M19.1745 134.341C19.575 133.862 19.575 133.226 19.575 132.701V128.372C19.575 127.862 19.575 127.511 19.799 127.225C20.0231 126.939 20.3918 126.795 21.0163 126.795C21.6408 126.795 22.0095 126.939 22.2335 127.225C22.4576 127.511 22.4576 127.862 22.4576 128.372V132.558C22.4576 133.671 22.4576 134.881 21.5438 135.965C20.8716 136.759 19.7673 137.38 17.7332 137.38C15.6991 137.38 14.5877 136.757 13.9121 135.965C13 134.881 13 133.671 13 132.558V128.372C13 127.862 13 127.511 13.224 127.225C13.4481 126.939 13.8168 126.795 14.4589 126.795C15.1011 126.795 15.468 126.939 15.6939 127.225C15.9197 127.511 15.9179 127.862 15.9179 128.372V132.701C15.9179 133.227 15.9179 133.862 16.3184 134.341C16.59 134.674 17.0399 134.881 17.7438 134.881C18.4477 134.881 18.894 134.674 19.1745 134.341Z" fill="#FFB940"/>
<path d="M32.8977 128.435C33.441 127.32 33.8733 126.795 35.0147 126.795C35.5439 126.795 35.9585 126.906 36.2496 127.241C36.5054 127.544 36.553 127.862 36.6183 128.514L37.3239 135.693C37.3398 135.884 37.3557 136.122 37.3557 136.25C37.3557 136.919 36.9235 137.269 35.9444 137.269C34.9035 137.269 34.4872 136.871 34.4237 136.107L34.0708 131.03L32.2573 135.354C32.0156 135.91 31.7122 136.34 30.8636 136.34C30.0151 136.34 29.7258 135.91 29.4858 135.354L27.6758 131.013L27.3089 136.098C27.2436 136.831 26.8767 137.261 25.8199 137.261C24.922 137.261 24.4421 136.957 24.4421 136.208C24.4421 136.065 24.458 135.858 24.4898 135.556L25.2095 128.516C25.2748 127.832 25.3224 127.464 25.6594 127.164C25.9152 126.925 26.2998 126.797 26.8943 126.797C28.078 126.797 28.512 127.306 29.0554 128.437L30.9607 132.4L32.8977 128.435Z" fill="#FFB940"/>
<path d="M42.2548 135.693C42.2548 136.203 42.2548 136.552 42.0466 136.84C41.8385 137.127 41.4874 137.269 40.8788 137.269C40.2701 137.269 39.9173 137.125 39.7091 136.84C39.501 136.554 39.501 136.203 39.501 135.693V128.579C39.501 128.005 39.501 127.32 40.5259 127.001C40.9899 126.857 41.6797 126.762 42.7523 126.762C43.6344 126.762 44.6099 126.825 45.5061 127.239C46.6122 127.749 47.2703 128.687 47.2703 130.057C47.2703 131.33 46.6934 132.317 45.6367 132.906L47.8454 135.819C48.3588 136.503 48.0377 137.268 46.6616 137.268C45.6032 137.268 45.2045 136.822 44.707 136.073L43.6026 134.418C43.3151 133.973 43.0892 133.541 43.0892 133.541H42.2566L42.2548 135.693ZM42.2548 131.348C42.2548 131.348 42.4806 131.363 42.7047 131.363C43.8884 131.363 44.3541 130.902 44.3541 130.218C44.3541 129.422 43.7296 129.166 42.8952 129.166C42.6808 129.166 42.4667 129.183 42.2548 129.215V131.348Z" fill="#FFB940"/>
<path d="M56.0012 135.137H52.4305L52.143 135.931C51.806 136.855 51.4056 137.269 50.3965 137.269C49.4844 137.269 49.1475 136.934 49.1475 136.426C49.1568 136.187 49.2169 135.954 49.3239 135.74L52.5911 128.037C52.928 127.225 53.3108 126.795 54.3358 126.795C55.3608 126.795 55.7136 127.241 56.0347 128.037L59.189 135.752C59.2725 135.955 59.3214 136.17 59.3336 136.389C59.3336 136.961 58.8838 137.266 57.9717 137.266C57.0103 137.266 56.6751 136.931 56.3064 135.944L56.0012 135.137ZM53.2315 132.94H55.2179L54.2247 130.269L53.2315 132.94Z" fill="#FFB940"/>
<path d="M70.2958 135.693C70.2958 136.203 70.2958 136.552 70.0718 136.84C69.8478 137.127 69.479 137.269 68.8369 137.269C68.1948 137.269 67.8278 137.125 67.602 136.84C67.3762 136.554 67.3779 136.203 67.3779 135.693V133.084H63.6662V135.693C63.6662 136.203 63.6662 136.552 63.4421 136.84C63.2181 137.127 62.8494 137.269 62.2072 137.269C61.5651 137.269 61.1981 137.125 60.9723 136.84C60.7465 136.554 60.7483 136.203 60.7483 135.693V128.372C60.7483 127.862 60.7483 127.511 60.9723 127.225C61.1964 126.939 61.5651 126.795 62.2072 126.795C62.8494 126.795 63.2163 126.939 63.4421 127.225C63.668 127.511 63.6662 127.862 63.6662 128.372V130.52H67.3815V128.372C67.3815 127.862 67.3815 127.511 67.6055 127.225C67.8296 126.939 68.1983 126.795 68.8404 126.795C69.4826 126.795 69.8495 126.939 70.0753 127.225C70.3011 127.511 70.2994 127.862 70.2994 128.372L70.2958 135.693Z" fill="#FFB940"/>
<path d="M80.7519 133.815C80.4644 133.815 80.2227 133.799 80.2227 133.799V135.693C80.2227 136.203 80.2227 136.552 79.9986 136.84C79.7746 137.127 79.4218 137.269 78.7973 137.269C78.1727 137.269 77.804 137.125 77.5959 136.84C77.3877 136.554 77.3718 136.203 77.3718 135.693V128.563C77.3718 127.99 77.3718 127.369 78.2839 127.034C78.7496 126.859 79.5011 126.764 80.4626 126.764C81.5035 126.764 82.7366 126.874 83.7298 127.479C84.6577 128.053 85.2187 128.943 85.2187 130.234C85.2205 132.621 83.2994 133.815 80.7519 133.815ZM80.2227 131.602C80.3711 131.623 80.5208 131.634 80.6708 131.633C81.5528 131.633 82.3044 131.283 82.3044 130.376C82.3044 129.548 81.664 129.166 80.7343 129.166C80.5632 129.167 80.3924 129.178 80.2227 129.2V131.602Z" fill="black"/>
<path d="M92.0337 135.137H88.4542L88.1649 135.931C87.8297 136.855 87.4292 137.269 86.4202 137.269C85.5063 137.269 85.1711 136.934 85.1711 136.426C85.1796 136.187 85.2398 135.953 85.3476 135.74L88.613 128.037C88.9499 127.225 89.3345 126.795 90.3595 126.795C91.3845 126.795 91.7373 127.241 92.0566 128.037L95.2109 135.752C95.2951 135.955 95.3441 136.17 95.3556 136.389C95.3556 136.961 94.9075 137.266 93.9936 137.266C93.0339 137.266 92.697 136.931 92.3283 135.944L92.0337 135.137ZM89.264 132.94H91.2398L90.2466 130.269L89.264 132.94Z" fill="black"/>
<path d="M101.985 131.476C102.818 132.031 103.524 132.828 103.524 134.134C103.524 136.172 101.777 137.348 99.6424 137.348C98.8912 137.352 98.1481 137.195 97.4637 136.887C96.9203 136.633 96.4546 136.298 96.4546 135.659C96.4546 135.055 96.8709 134.257 97.6083 134.257C98.2805 134.257 98.7938 134.925 99.6583 134.925C100.235 134.925 100.602 134.639 100.602 134.241C100.602 133.748 100.043 133.445 99.3531 133.08C98.1693 132.459 96.5516 131.711 96.5516 129.848C96.5516 127.919 98.2328 126.692 100.299 126.692C101.74 126.692 103.342 127.297 103.342 128.349C103.342 128.952 102.813 129.685 102.125 129.685C101.532 129.685 100.955 129.128 100.235 129.128C99.7535 129.128 99.466 129.384 99.466 129.685C99.4713 130.345 100.833 130.695 101.985 131.476Z" fill="black"/>
<path d="M110.331 131.476C111.164 132.031 111.87 132.828 111.87 134.134C111.87 136.172 110.123 137.348 107.989 137.348C107.237 137.352 106.494 137.195 105.81 136.887C105.267 136.633 104.801 136.298 104.801 135.659C104.801 135.055 105.217 134.257 105.955 134.257C106.627 134.257 107.14 134.925 108.004 134.925C108.581 134.925 108.95 134.639 108.95 134.241C108.95 133.748 108.389 133.445 107.699 133.08C106.516 132.459 104.898 131.711 104.898 129.848C104.898 127.919 106.579 126.692 108.645 126.692C110.086 126.692 111.688 127.297 111.688 128.349C111.688 128.952 111.159 129.685 110.471 129.685C109.878 129.685 109.301 129.128 108.581 129.128C108.1 129.128 107.812 129.384 107.812 129.685C107.817 130.345 109.179 130.695 110.331 131.476Z" fill="black"/>
<path d="M116.57 130.62H118.074C118.586 130.62 118.939 130.62 119.228 130.809C119.517 130.999 119.66 131.304 119.66 131.846C119.66 132.387 119.516 132.673 119.228 132.863C118.941 133.052 118.586 133.054 118.074 133.054H116.57V134.758H118.971C119.484 134.758 119.837 134.758 120.124 134.949C120.412 135.14 120.557 135.442 120.557 135.984C120.557 136.526 120.412 136.812 120.124 137.003C119.837 137.194 119.484 137.194 118.971 137.194H115.16C114.167 137.194 113.798 136.827 113.798 135.84V128.26C113.798 127.272 114.167 126.906 115.16 126.906H118.688C119.2 126.906 119.553 126.906 119.842 127.097C120.131 127.288 120.274 127.592 120.274 128.132C120.274 128.672 120.13 128.959 119.842 129.15C119.555 129.342 119.2 129.342 118.688 129.342H116.571L116.57 130.62Z" fill="black"/>
<path d="M125.295 135.693C125.295 136.203 125.295 136.552 125.071 136.84C124.847 137.127 124.51 137.269 123.885 137.269C123.261 137.269 122.908 137.125 122.7 136.84C122.492 136.554 122.476 136.203 122.476 135.693V127.909C122.476 127.225 122.973 126.795 124.046 126.795C125.15 126.795 125.567 127.225 125.967 127.751L129.522 132.589V128.372C129.522 127.862 129.522 127.511 129.746 127.225C129.97 126.939 130.307 126.795 130.931 126.795C131.556 126.795 131.909 126.939 132.117 127.225C132.325 127.511 132.341 127.862 132.341 128.372V136.172C132.341 136.934 131.845 137.317 130.979 137.317C130.113 137.317 129.666 136.95 129.25 136.41L125.295 131.269V135.693Z" fill="black"/>
<path d="M143.637 135.311C143.637 136.059 143.492 136.457 142.578 136.84C141.684 137.181 140.733 137.354 139.775 137.348C136.734 137.348 134.267 135.567 134.267 132.047C134.267 128.291 137.053 126.699 139.856 126.699C140.818 126.699 141.858 126.89 142.594 127.272C143.107 127.544 143.443 127.893 143.443 128.451C143.443 129.04 143.058 129.931 142.259 129.931C141.922 129.931 141.601 129.789 141.216 129.629C140.758 129.424 140.262 129.316 139.759 129.31C138.431 129.31 137.213 130.075 137.213 132.031C137.213 133.943 138.383 134.818 139.775 134.818C140.096 134.822 140.415 134.773 140.721 134.674V133.952C140.721 133.441 140.721 133.092 140.945 132.805C141.169 132.517 141.537 132.375 142.18 132.375C142.822 132.375 143.189 132.519 143.414 132.805C143.64 133.091 143.638 133.441 143.638 133.952L143.637 135.311Z" fill="black"/>
<path d="M148.52 130.62H150.025C150.538 130.62 150.889 130.62 151.179 130.809C151.468 130.999 151.611 131.304 151.611 131.846C151.611 132.387 151.466 132.673 151.179 132.863C150.891 133.052 150.538 133.054 150.025 133.054H148.52V134.758H150.921C151.434 134.758 151.787 134.758 152.075 134.949C152.362 135.14 152.507 135.442 152.507 135.984C152.507 136.526 152.362 136.812 152.075 137.003C151.787 137.194 151.434 137.194 150.921 137.194H147.11C146.117 137.194 145.749 136.827 145.749 135.84V128.26C145.749 127.272 146.117 126.906 147.11 126.906H150.639C151.152 126.906 151.503 126.906 151.792 127.097C152.082 127.288 152.225 127.592 152.225 128.132C152.225 128.672 152.08 128.959 151.792 129.15C151.505 129.342 151.152 129.342 150.639 129.342H148.522L148.52 130.62Z" fill="black"/>
<path d="M157.182 135.693C157.182 136.203 157.182 136.552 156.974 136.84C156.766 137.127 156.413 137.269 155.804 137.269C155.195 137.269 154.843 137.125 154.634 136.84C154.426 136.554 154.426 136.203 154.426 135.693V128.579C154.426 128.005 154.426 127.32 155.451 127.001C155.917 126.857 156.605 126.762 157.678 126.762C158.56 126.762 159.535 126.825 160.431 127.239C161.538 127.749 162.196 128.687 162.196 130.057C162.196 131.33 161.619 132.317 160.562 132.906L162.776 135.821C163.288 136.505 162.968 137.269 161.59 137.269C160.532 137.269 160.133 136.824 159.636 136.075L158.531 134.42C158.244 133.974 158.02 133.543 158.02 133.543H157.187L157.182 135.693ZM157.182 131.348C157.182 131.348 157.406 131.363 157.63 131.363C158.815 131.363 159.279 130.902 159.279 130.218C159.279 129.422 158.655 129.166 157.822 129.166C157.608 129.166 157.394 129.183 157.182 129.215V131.348Z" fill="black"/>
<path d="M63.4175 61.5165C63.4457 61.7394 63.4977 61.9586 63.5727 62.1706C63.5727 65.0393 63.5551 66.4948 63.541 67.2067C63.541 67.3558 63.541 67.4715 63.541 67.5574C63.541 67.7678 63.5304 67.8327 63.5304 67.8327C63.2658 68.6148 63.488 70.1351 63.5304 70.2719C63.5442 70.413 63.5843 70.5504 63.6486 70.677C63.7668 70.9435 63.9714 70.9908 64.3137 71.2749C64.6559 71.559 65.575 71.708 65.575 71.708H67.3939C67.3939 71.708 68.313 71.559 68.6552 71.2749C68.9975 70.9908 69.2039 70.9435 69.3221 70.677C69.3855 70.5502 69.425 70.4129 69.4385 70.2719C69.4808 70.1351 69.7031 68.6148 69.4385 67.8327C69.4385 67.8327 69.4385 67.7713 69.4279 67.5574C69.4279 67.468 69.4279 67.3523 69.4191 67.2067C69.4068 66.5053 69.3909 65.0516 69.3909 62.1688C69.7596 61.1535 69.6096 58.8038 69.2639 58.4864C69.0106 58.2809 68.7267 58.1158 68.4224 57.9971C68.0524 57.9007 67.6735 57.8419 67.2915 57.8218C65.9067 57.799 64.5307 57.7113 63.7068 58.4881C63.5039 58.6775 63.5304 59.0037 63.4175 59.5175C63.3446 60.1818 63.3446 60.8521 63.4175 61.5165ZM69.0627 67.0945C68.9732 66.8857 68.9035 66.6691 68.8546 66.4474C68.6041 65.3637 68.6464 65.1673 68.6464 64.3432C68.6459 64.3278 68.6496 64.3126 68.6571 64.2992C68.6647 64.2858 68.6758 64.2746 68.6892 64.2671C68.7027 64.2595 68.718 64.2557 68.7334 64.2561C68.7489 64.2566 68.764 64.2612 68.777 64.2695L69.0257 64.4449C69.0375 64.4532 69.047 64.4643 69.0535 64.4771C69.0599 64.49 69.0631 64.5042 69.0627 64.5185V67.0945ZM69.0627 61.5971V63.8101C69.0638 63.8222 69.062 63.8344 69.0575 63.8456C69.053 63.8569 69.046 63.867 69.0369 63.8752C69.0279 63.8833 69.0171 63.8893 69.0053 63.8926C68.9936 63.8959 68.9812 63.8965 68.9692 63.8943L68.7046 63.8259C68.6868 63.8208 68.6712 63.8099 68.6603 63.795C68.6494 63.78 68.6439 63.7619 68.6446 63.7435C68.6305 62.2389 68.597 61.4411 68.8211 61.5095C68.9322 61.5095 69.0592 61.4832 69.0592 61.5971H69.0627ZM68.5988 60.14C68.5993 59.975 68.6504 59.8142 68.7452 59.6788C68.9093 59.4456 68.9216 60.0944 68.9904 60.9378L68.5952 61.3552C68.5952 61.3552 68.5811 60.3627 68.5952 60.14H68.5988ZM64.633 58.5285C64.8235 58.4075 65.3139 58.1234 65.6597 58.1181C65.9137 58.1181 67.1116 58.1181 67.3021 58.1181C67.655 58.1181 68.1383 58.4075 68.3289 58.5285C68.4506 58.6039 68.3994 58.7389 68.3783 59.0545C68.3761 59.0769 68.3694 59.0986 68.3585 59.1183C68.3476 59.138 68.3328 59.1553 68.315 59.169C68.2971 59.1828 68.2766 59.1929 68.2548 59.1985C68.2329 59.2041 68.2101 59.2053 68.1877 59.2018C67.2327 59.0835 66.2682 59.0612 65.3086 59.1352L64.7794 59.2018C64.7572 59.2053 64.7344 59.2041 64.7127 59.1985C64.6909 59.1928 64.6705 59.1828 64.6528 59.169C64.6351 59.1551 64.6204 59.1379 64.6097 59.1182C64.599 59.0985 64.5925 59.0768 64.5906 59.0545L64.5642 58.674C64.5605 58.6461 64.5647 58.6178 64.5762 58.5921C64.5877 58.5664 64.6061 58.5444 64.6294 58.5285H64.633ZM64.7512 65.8933C65.3616 66.0581 66.7023 66.0687 67.662 65.9845C67.8473 65.9709 68.031 65.9403 68.2107 65.8933C68.2484 65.8835 68.2877 65.8814 68.3262 65.8872C68.3647 65.8931 68.4016 65.9067 68.4347 65.9272C68.4677 65.9477 68.4962 65.9747 68.5184 66.0066C68.5405 66.0385 68.5559 66.0745 68.5635 66.1125L68.8951 68.0414C67.3273 68.585 65.6204 68.585 64.0526 68.0414L64.3842 66.1125C64.3913 66.073 64.4066 66.0354 64.4293 66.0022C64.4519 65.969 64.4813 65.9409 64.5156 65.9197C64.5499 65.8986 64.5882 65.8848 64.6282 65.8793C64.6682 65.8739 64.7089 65.8769 64.7476 65.8881L64.7512 65.8933ZM63.8991 67.0997V64.5115C63.8992 64.4972 63.9025 64.4832 63.909 64.4704C63.9154 64.4576 63.9247 64.4465 63.9361 64.4379L64.1849 64.2625C64.1979 64.2537 64.2131 64.2486 64.2289 64.248C64.2446 64.2473 64.2602 64.251 64.274 64.2586C64.2877 64.2663 64.2991 64.2776 64.3067 64.2913C64.3143 64.305 64.318 64.3205 64.3172 64.3362C64.3172 64.3765 64.3172 65.2848 64.3172 65.3252C64.2025 66.0038 64.0861 66.6859 63.8956 67.0945L63.8991 67.0997ZM64.2166 59.684C64.3931 59.9313 64.3825 60.0698 64.3648 61.3657L63.9714 60.9431C64.0349 60.0944 64.0508 59.4456 64.2131 59.6788L64.2166 59.684ZM63.9767 61.5147H64.1408C64.3648 61.4463 64.3313 62.2442 64.3172 63.7487C64.3182 63.7672 64.3128 63.7855 64.3019 63.8005C64.291 63.8155 64.2752 63.8263 64.2572 63.8312L63.9926 63.8995C63.9806 63.9017 63.9682 63.9012 63.9565 63.8978C63.9448 63.8945 63.934 63.8886 63.9249 63.8804C63.9159 63.8723 63.9088 63.8622 63.9044 63.8509C63.8999 63.8396 63.8981 63.8275 63.8991 63.8154C63.8956 61.5831 63.8479 61.5095 63.9732 61.5095L63.9767 61.5147Z" fill="#FFB940"/>
<path d="M68.1367 71.5555C68.4324 71.4788 68.7006 71.3215 68.9112 71.1014C68.9185 71.0951 68.9244 71.0873 68.9284 71.0785C68.9324 71.0697 68.9343 71.0601 68.9341 71.0505C68.9341 70.9839 68.9341 70.8401 68.83 70.898C68.1984 71.2627 67.992 71.317 68.0079 71.41C68.0238 71.5029 68.052 71.5853 68.1367 71.5555Z" fill="#242424"/>
<path d="M64.924 71.5064C64.9204 71.5165 64.9149 71.5257 64.9078 71.5336C64.9006 71.5415 64.8919 71.548 64.8822 71.5525C64.8726 71.5571 64.8621 71.5597 64.8514 71.5602C64.8407 71.5607 64.83 71.5591 64.8199 71.5555C64.5239 71.4784 64.2552 71.3212 64.0437 71.1014C64.0302 71.0877 64.0221 71.0696 64.0208 71.0505C64.0208 70.9839 64.0208 70.8401 64.1248 70.898C64.9822 71.3925 64.9893 71.2943 64.924 71.5064Z" fill="#242424"/>
<path d="M68.9958 67.3452L69.0364 67.5311C69.511 67.6416 69.8656 67.4662 69.8726 67.3294C69.8797 67.1927 69.952 67.0436 69.2411 67.2558L68.9958 67.3452Z" fill="#242424"/>
<path d="M69.2162 64.5694C69.2088 64.5691 69.2014 64.5704 69.1944 64.573C69.1875 64.5756 69.1811 64.5795 69.1757 64.5846C69.1703 64.5896 69.166 64.5957 69.1629 64.6024C69.1599 64.6091 69.1582 64.6164 69.158 64.6237V65.0376C69.1582 65.0447 69.1598 65.0517 69.1628 65.0582C69.1658 65.0647 69.17 65.0706 69.1752 65.0755C69.1805 65.0804 69.1866 65.0842 69.1933 65.0867C69.2001 65.0892 69.2072 65.0904 69.2144 65.0902C69.2217 65.0906 69.2291 65.0896 69.236 65.0872C69.2429 65.0848 69.2493 65.0811 69.2548 65.0761C69.2602 65.0712 69.2646 65.0653 69.2676 65.0587C69.2707 65.052 69.2724 65.0449 69.2726 65.0376V64.6255C69.2726 64.6182 69.2712 64.611 69.2683 64.6043C69.2654 64.5975 69.2613 64.5915 69.256 64.5864C69.2507 64.5813 69.2445 64.5774 69.2376 64.5747C69.2308 64.5721 69.2235 64.5709 69.2162 64.5711V64.5694Z" fill="#242424"/>
<path d="M69.2162 61.8479C69.2088 61.8477 69.2014 61.8489 69.1944 61.8515C69.1875 61.8541 69.1811 61.8581 69.1757 61.8631C69.1703 61.8682 69.166 61.8742 69.1629 61.8809C69.1599 61.8877 69.1582 61.8949 69.158 61.9023V62.3126C69.158 62.3199 69.1594 62.3271 69.1623 62.3338C69.1651 62.3405 69.1693 62.3466 69.1746 62.3517C69.1799 62.3568 69.1861 62.3607 69.1929 62.3634C69.1998 62.366 69.2071 62.3672 69.2144 62.367C69.2218 62.3672 69.2292 62.366 69.2362 62.3634C69.2431 62.3608 69.2494 62.3568 69.2549 62.3518C69.2603 62.3467 69.2646 62.3407 69.2677 62.334C69.2707 62.3272 69.2724 62.32 69.2726 62.3126V61.9023C69.2726 61.895 69.2712 61.8878 69.2683 61.8811C69.2654 61.8744 69.2613 61.8683 69.256 61.8632C69.2507 61.8581 69.2445 61.8542 69.2376 61.8516C69.2308 61.8489 69.2235 61.8477 69.2162 61.8479Z" fill="#242424"/>
<path d="M63.9592 67.3452L63.9203 67.5311C63.444 67.6416 63.0912 67.4662 63.0841 67.3294C63.0771 67.1927 63.0048 67.0436 63.7157 67.2558L63.9592 67.3452Z" fill="#242424"/>
<path d="M68.103 59.8717C67.909 59.8717 67.9672 59.6613 67.9672 65.2866C67.9676 65.3038 67.9715 65.3207 67.9786 65.3364C67.9857 65.3521 67.9959 65.3662 68.0085 65.378C68.0212 65.3897 68.036 65.3989 68.0522 65.4048C68.0685 65.4108 68.0857 65.4136 68.103 65.4129C68.1378 65.4138 68.1716 65.4011 68.197 65.3774C68.2224 65.3538 68.2375 65.3212 68.2388 65.2866C68.2388 59.5841 68.2953 59.8717 68.103 59.8717Z" fill="#242424"/>
<path d="M64.8535 59.8717C65.0476 59.8717 64.9893 59.6613 64.9893 65.2866C64.988 65.3212 64.9729 65.3538 64.9475 65.3774C64.9221 65.4011 64.8883 65.4138 64.8535 65.4129C64.8362 65.4136 64.819 65.4108 64.8027 65.4048C64.7865 65.3989 64.7716 65.3897 64.759 65.378C64.7464 65.3662 64.7362 65.3521 64.7291 65.3364C64.722 65.3207 64.7181 65.3038 64.7177 65.2866C64.7177 59.5841 64.6594 59.8717 64.8535 59.8717Z" fill="#242424"/>
<path d="M63.7403 64.5694C63.7477 64.5691 63.755 64.5704 63.7618 64.573C63.7687 64.5756 63.7749 64.5796 63.7802 64.5847C63.7854 64.5897 63.7896 64.5958 63.7925 64.6025C63.7953 64.6092 63.7968 64.6164 63.7968 64.6237V65.0376C63.7966 65.0449 63.7949 65.052 63.7918 65.0587C63.7887 65.0653 63.7844 65.0712 63.7789 65.0761C63.7735 65.0811 63.7671 65.0848 63.7602 65.0872C63.7533 65.0896 63.7459 65.0906 63.7386 65.0902C63.7314 65.0904 63.7242 65.0892 63.7175 65.0867C63.7108 65.0842 63.7046 65.0804 63.6994 65.0755C63.6941 65.0706 63.6899 65.0647 63.687 65.0582C63.684 65.0517 63.6824 65.0447 63.6821 65.0376V64.6255C63.6824 64.6181 63.684 64.6109 63.6871 64.6041C63.6901 64.5974 63.6945 64.5914 63.6999 64.5863C63.7053 64.5813 63.7117 64.5773 63.7186 64.5747C63.7255 64.5721 63.7329 64.5709 63.7403 64.5711V64.5694Z" fill="#242424"/>
<path d="M63.7403 61.8479C63.7477 61.8477 63.755 61.8489 63.7618 61.8516C63.7687 61.8542 63.7749 61.8581 63.7802 61.8632C63.7854 61.8683 63.7896 61.8744 63.7925 61.8811C63.7953 61.8878 63.7968 61.895 63.7968 61.9023V62.3126C63.7966 62.32 63.7949 62.3272 63.7918 62.334C63.7888 62.3407 63.7844 62.3467 63.779 62.3518C63.7736 62.3568 63.7673 62.3608 63.7603 62.3634C63.7534 62.366 63.746 62.3672 63.7386 62.367C63.7312 62.3672 63.7239 62.366 63.7171 62.3634C63.7103 62.3607 63.704 62.3568 63.6988 62.3517C63.6935 62.3466 63.6893 62.3405 63.6865 62.3338C63.6836 62.3271 63.6821 62.3199 63.6821 62.3126V61.9023C63.6824 61.8949 63.684 61.8877 63.6871 61.8809C63.6901 61.8742 63.6945 61.8682 63.6999 61.8631C63.7053 61.8581 63.7117 61.8541 63.7186 61.8515C63.7255 61.8489 63.7329 61.8477 63.7403 61.8479Z" fill="#242424"/>
<path d="M64.2166 58.3478C64.2298 58.3593 64.2467 58.3656 64.2642 58.3656C64.2817 58.3656 64.2987 58.3593 64.3119 58.3478C64.5077 58.1725 64.5042 58.1935 64.4054 58.0427C64.2947 58.0955 64.187 58.154 64.0825 58.2181L64.2166 58.3478Z" fill="#BE1E2D"/>
<path d="M68.5158 58.2356C68.7169 58.4109 68.6711 58.4109 68.8686 58.2145C68.7642 58.1505 68.6564 58.0919 68.5458 58.0392C68.5035 58.1181 68.4488 58.176 68.5158 58.2356Z" fill="#BE1E2D"/>
<path d="M112.226 67.9976C112.197 67.7747 112.144 67.5555 112.069 67.3435C112.069 64.4747 112.087 63.0193 112.101 62.3074C112.101 62.1583 112.101 62.0408 112.101 61.9567C112.101 61.7462 112.112 61.6796 112.112 61.6796C112.376 60.8975 112.154 59.379 112.112 59.2422C112.098 59.101 112.058 58.9637 111.993 58.8371C111.877 58.5688 111.67 58.5232 111.328 58.2392C110.986 57.9551 110.067 57.806 110.067 57.806H108.264C108.264 57.806 107.345 57.9533 107.003 58.2392C106.66 58.525 106.454 58.5688 106.336 58.8371C106.272 58.9639 106.233 59.1012 106.219 59.2422C106.177 59.379 105.955 60.8975 106.219 61.6796C106.219 61.6796 106.219 61.7427 106.23 61.9567C106.23 62.0461 106.23 62.1618 106.239 62.3074C106.251 63.0088 106.269 64.4625 106.269 67.3453C105.9 68.3606 106.048 70.7086 106.396 71.0277C106.648 71.233 106.932 71.3975 107.235 71.5152C107.605 71.6125 107.984 71.6713 108.366 71.6905C109.751 71.7133 111.127 71.801 111.951 71.0259C112.154 70.8366 112.127 70.5086 112.24 69.9949C112.309 69.3306 112.304 68.6608 112.226 67.9976ZM106.581 62.4196C106.67 62.6284 106.74 62.845 106.789 63.0666C107.04 64.1503 106.997 64.3467 106.997 65.1709C106.998 65.1863 106.994 65.2015 106.987 65.2149C106.979 65.2283 106.968 65.2394 106.954 65.247C106.941 65.2546 106.926 65.2584 106.91 65.2579C106.895 65.2575 106.88 65.2529 106.867 65.2445L106.618 65.0692C106.606 65.061 106.596 65.0499 106.59 65.0371C106.584 65.0242 106.58 65.0099 106.581 64.9955V62.4196ZM106.581 67.9169V65.704C106.58 65.6919 106.582 65.6797 106.586 65.6684C106.591 65.6571 106.598 65.647 106.607 65.6389C106.616 65.6308 106.627 65.6248 106.638 65.6215C106.65 65.6182 106.662 65.6176 106.674 65.6198L106.939 65.6882C106.957 65.6932 106.972 65.7038 106.983 65.7184C106.994 65.733 106.999 65.7507 106.999 65.7688C107.013 67.2751 107.047 68.073 106.823 68.0028C106.71 68.0028 106.583 68.0291 106.583 67.9169H106.581ZM107.045 69.3741C107.046 69.5393 106.995 69.7005 106.898 69.8353C106.734 70.0685 106.722 69.4197 106.653 68.5745L107.045 68.1536C107.045 68.1536 107.061 69.1497 107.047 69.3741H107.045ZM111.011 70.9839C110.82 71.1049 110.33 71.3889 109.984 71.3959C109.73 71.3959 108.532 71.3959 108.342 71.3959C107.989 71.3959 107.505 71.1049 107.315 70.9839C107.193 70.9085 107.244 70.7752 107.265 70.4578C107.268 70.4356 107.275 70.4141 107.286 70.3946C107.297 70.3751 107.311 70.358 107.329 70.3444C107.347 70.3308 107.368 70.3209 107.389 70.3154C107.411 70.3099 107.434 70.3088 107.456 70.3123C108.412 70.4287 109.377 70.451 110.337 70.3789L110.866 70.3123C110.888 70.3088 110.911 70.3099 110.932 70.3154C110.954 70.321 110.974 70.3309 110.992 70.3445C111.01 70.3581 111.024 70.3752 111.035 70.3947C111.046 70.4142 111.053 70.4357 111.055 70.4578L111.081 70.8401C111.085 70.868 111.08 70.8964 111.068 70.9219C111.056 70.9473 111.036 70.9688 111.012 70.9839H111.011ZM110.893 63.619C110.282 63.4559 108.941 63.4437 107.982 63.5278C107.796 63.5423 107.613 63.5728 107.433 63.619C107.395 63.6286 107.356 63.6305 107.318 63.6247C107.28 63.6189 107.243 63.6054 107.21 63.5851C107.177 63.5648 107.148 63.538 107.126 63.5065C107.104 63.475 107.088 63.4393 107.08 63.4016L106.749 61.4727C108.317 60.9308 110.023 60.9308 111.591 61.4727L111.259 63.4016C111.252 63.4411 111.237 63.4787 111.214 63.5118C111.191 63.545 111.161 63.573 111.127 63.594C111.092 63.615 111.054 63.6286 111.014 63.6338C110.974 63.639 110.933 63.6358 110.894 63.6243L110.893 63.619ZM111.745 62.4143V64.9955C111.745 65.0099 111.742 65.024 111.735 65.0368C111.729 65.0497 111.719 65.0607 111.708 65.0692L111.459 65.2445C111.446 65.2534 111.431 65.2584 111.415 65.2591C111.399 65.2598 111.383 65.2561 111.37 65.2484C111.356 65.2408 111.345 65.2295 111.337 65.2158C111.329 65.2021 111.326 65.1865 111.326 65.1709C111.326 65.1306 111.326 64.2222 111.326 64.1819C111.439 63.5103 111.556 62.8264 111.746 62.4196L111.745 62.4143ZM111.427 69.83C111.251 69.581 111.261 69.4443 111.281 68.1484L111.672 68.5692C111.616 69.4215 111.591 70.0685 111.429 69.8353L111.427 69.83ZM111.667 67.9976H111.503C111.279 68.0677 111.312 67.2699 111.326 65.7636C111.326 65.7454 111.332 65.7277 111.343 65.7131C111.354 65.6986 111.369 65.6879 111.386 65.6829L111.651 65.6145C111.663 65.6123 111.675 65.6129 111.687 65.6162C111.699 65.6195 111.71 65.6255 111.719 65.6336C111.728 65.6418 111.735 65.6519 111.739 65.6632C111.744 65.6745 111.746 65.6866 111.745 65.6987C111.746 67.931 111.792 68.0028 111.669 68.0028L111.667 67.9976Z" fill="#FFB940"/>
<path d="M107.505 57.9568C107.21 58.0348 106.942 58.1926 106.731 58.4127C106.724 58.4193 106.718 58.4271 106.714 58.4359C106.71 58.4446 106.708 58.454 106.708 58.4636C106.708 58.5302 106.708 58.674 106.812 58.6162C107.443 58.2514 107.65 58.1953 107.634 58.1041C107.618 58.0129 107.592 57.927 107.505 57.9568Z" fill="#242424"/>
<path d="M110.718 58.0076C110.725 57.9873 110.74 57.9706 110.759 57.9611C110.779 57.9516 110.801 57.95 110.822 57.9568C111.118 58.0352 111.386 58.1929 111.598 58.4127C111.605 58.4192 111.611 58.4271 111.615 58.4358C111.619 58.4445 111.621 58.454 111.621 58.4635C111.621 58.5302 111.621 58.674 111.517 58.6161C110.659 58.1198 110.652 58.2198 110.718 58.0076Z" fill="#242424"/>
<path d="M106.646 62.1688L106.607 61.9829C106.131 61.8724 105.776 62.0478 105.771 62.1828C105.766 62.3178 105.69 62.4686 106.401 62.2582L106.646 62.1688Z" fill="#242424"/>
<path d="M106.426 64.9429C106.433 64.9431 106.44 64.9419 106.447 64.9393C106.454 64.9367 106.461 64.9328 106.466 64.9277C106.471 64.9227 106.476 64.9166 106.479 64.9099C106.482 64.9032 106.484 64.8959 106.484 64.8885V64.4782C106.484 64.4709 106.482 64.4637 106.479 64.457C106.477 64.4503 106.472 64.4442 106.467 64.4391C106.462 64.4341 106.456 64.4301 106.449 64.4275C106.442 64.4249 106.435 64.4236 106.427 64.4239C106.42 64.4236 106.413 64.4248 106.406 64.4274C106.399 64.4301 106.392 64.434 106.387 64.439C106.382 64.4441 106.377 64.4502 106.374 64.4569C106.371 64.4636 106.369 64.4708 106.369 64.4782V64.8885C106.369 64.8958 106.371 64.903 106.373 64.9098C106.376 64.9165 106.381 64.9225 106.386 64.9276C106.391 64.9327 106.397 64.9367 106.404 64.9393C106.411 64.9419 106.418 64.9431 106.426 64.9429Z" fill="#242424"/>
<path d="M106.426 67.6679C106.433 67.6681 106.44 67.6669 106.447 67.6643C106.454 67.6617 106.461 67.6577 106.466 67.6527C106.471 67.6476 106.476 67.6416 106.479 67.6349C106.482 67.6281 106.484 67.6209 106.484 67.6135V67.2032C106.484 67.1959 106.482 67.1887 106.479 67.182C106.477 67.1753 106.472 67.1692 106.467 67.1641C106.462 67.159 106.456 67.1551 106.449 67.1525C106.442 67.1498 106.435 67.1486 106.427 67.1488C106.42 67.1486 106.413 67.1498 106.406 67.1524C106.399 67.155 106.392 67.159 106.387 67.164C106.382 67.1691 106.377 67.1751 106.374 67.1818C106.371 67.1886 106.369 67.1958 106.369 67.2032V67.6135C106.369 67.6208 106.371 67.628 106.373 67.6347C106.376 67.6414 106.381 67.6475 106.386 67.6526C106.391 67.6577 106.397 67.6616 106.404 67.6643C106.411 67.6669 106.418 67.6681 106.426 67.6679Z" fill="#242424"/>
<path d="M111.683 62.1688L111.722 61.9829C112.198 61.8724 112.551 62.0478 112.558 62.1828C112.565 62.3178 112.639 62.4686 111.928 62.2582L111.683 62.1688Z" fill="#242424"/>
<path d="M107.539 69.6423C107.733 69.6423 107.675 69.851 107.675 64.2274C107.674 64.2102 107.67 64.1931 107.663 64.1774C107.656 64.1616 107.646 64.1473 107.633 64.1354C107.621 64.1236 107.606 64.1143 107.59 64.1081C107.574 64.1019 107.556 64.0989 107.539 64.0994C107.504 64.0989 107.47 64.112 107.445 64.136C107.419 64.1599 107.404 64.1927 107.403 64.2274C107.403 69.9282 107.347 69.6423 107.539 69.6423Z" fill="#242424"/>
<path d="M110.788 69.6423C110.596 69.6423 110.653 69.851 110.653 64.2274C110.654 64.1927 110.669 64.1599 110.694 64.136C110.72 64.112 110.753 64.0989 110.788 64.0994C110.806 64.0989 110.823 64.1019 110.839 64.1081C110.855 64.1143 110.87 64.1236 110.883 64.1354C110.896 64.1473 110.906 64.1616 110.913 64.1774C110.92 64.1931 110.924 64.2102 110.924 64.2274C110.924 69.9282 110.982 69.6423 110.788 69.6423Z" fill="#242424"/>
<path d="M111.901 64.9429C111.894 64.9431 111.887 64.9419 111.88 64.9393C111.873 64.9367 111.867 64.9327 111.862 64.9276C111.856 64.9225 111.852 64.9165 111.849 64.9098C111.846 64.903 111.845 64.8958 111.845 64.8885V64.4782C111.845 64.4708 111.847 64.4636 111.85 64.4569C111.853 64.4502 111.857 64.4441 111.863 64.439C111.868 64.434 111.875 64.4301 111.881 64.4274C111.888 64.4248 111.896 64.4236 111.903 64.4239C111.911 64.4236 111.918 64.4249 111.925 64.4275C111.932 64.4301 111.938 64.4341 111.943 64.4391C111.948 64.4442 111.952 64.4503 111.955 64.457C111.958 64.4637 111.96 64.4709 111.96 64.4782V64.8885C111.959 64.8959 111.958 64.9032 111.955 64.9099C111.952 64.9166 111.947 64.9227 111.942 64.9277C111.936 64.9328 111.93 64.9367 111.923 64.9393C111.916 64.9419 111.909 64.9431 111.901 64.9429Z" fill="#242424"/>
<path d="M111.901 67.6679C111.894 67.6681 111.887 67.6669 111.88 67.6643C111.873 67.6616 111.867 67.6577 111.862 67.6526C111.856 67.6475 111.852 67.6414 111.849 67.6347C111.846 67.628 111.845 67.6208 111.845 67.6135V67.2032C111.845 67.1958 111.847 67.1886 111.85 67.1818C111.853 67.1751 111.857 67.1691 111.863 67.164C111.868 67.159 111.875 67.155 111.881 67.1524C111.888 67.1498 111.896 67.1486 111.903 67.1488C111.911 67.1486 111.918 67.1498 111.925 67.1525C111.932 67.1551 111.938 67.159 111.943 67.1641C111.948 67.1692 111.952 67.1753 111.955 67.182C111.958 67.1887 111.96 67.1959 111.96 67.2032V67.6135C111.959 67.6209 111.958 67.6281 111.955 67.6349C111.952 67.6416 111.947 67.6476 111.942 67.6527C111.936 67.6577 111.93 67.6617 111.923 67.6643C111.916 67.6669 111.909 67.6681 111.901 67.6679Z" fill="#242424"/>
<path d="M111.425 71.175C111.412 71.1632 111.395 71.1566 111.378 71.1566C111.36 71.1566 111.343 71.1632 111.33 71.175C111.134 71.3504 111.138 71.3276 111.237 71.4801C111.33 71.4363 111.446 71.3749 111.559 71.3048L111.425 71.175Z" fill="#BE1E2D"/>
<path d="M107.126 71.2784C106.925 71.103 106.971 71.103 106.773 71.2977C106.886 71.3643 107.003 71.4257 107.098 71.473C107.14 71.3959 107.193 71.3362 107.126 71.2784Z" fill="#BE1E2D"/>
</g>
<defs>
<linearGradient id="paint0_linear_1_802" x1="96.2925" y1="68.4938" x2="101.999" y2="68.4938" gradientUnits="userSpaceOnUse">
<stop/>
<stop offset="1" stop-color="#000001"/>
</linearGradient>
<linearGradient id="paint1_linear_1_802" x1="94.2883" y1="49.0927" x2="98.9104" y2="49.0927" gradientUnits="userSpaceOnUse">
<stop/>
<stop offset="1" stop-color="#000001"/>
</linearGradient>
<linearGradient id="paint2_linear_1_802" x1="92.9353" y1="59.8506" x2="100.264" y2="59.8506" gradientUnits="userSpaceOnUse">
<stop/>
<stop offset="1" stop-color="#000001"/>
</linearGradient>
<linearGradient id="paint3_linear_1_802" x1="79.4766" y1="76.9581" x2="89.1565" y2="76.9581" gradientUnits="userSpaceOnUse">
<stop/>
<stop offset="1" stop-color="#000001"/>
</linearGradient>
<clipPath id="clip0_1_802">
<rect width="150" height="105" fill="white" transform="translate(13 34)"/>
</clipPath>
</defs>
</svg>
